<svg xmlns="http://www.w3.org/2000/svg" xmlns:xlink="http://www.w3.org/1999/xlink" width="16px" height="16px" viewBox="0 0 13 13" version="1.1">
    <!-- Generator: Sketch 3.6.1 (26313) - http://www.bohemiancoding.com/sketch -->
    <title>search</title>
    <desc>Created with Sketch.</desc>
    <defs/>
    <g id="All-icons" stroke="none" stroke-width="1" fill="none" fill-rule="evenodd">
        <g id="Search" transform="translate(-19.000000, -19.000000)" fill="#999999">
            <path d="M28,24.5 C28,23.5364535 27.6575555,22.712243 26.9726562,22.0273438 C26.287757,21.3424445 25.4635465,21 24.5,21 C23.5364535,21 22.712243,21.3424445 22.0273438,22.0273438 C21.3424445,22.712243 21,23.5364535 21,24.5 C21,25.4635465 21.3424445,26.287757 22.0273438,26.9726562 C22.712243,27.6575555 23.5364535,28 24.5,28 C25.4635465,28 26.287757,27.6575555 26.9726562,26.9726562 C27.6575555,26.287757 28,25.4635465 28,24.5 L28,24.5 Z M32,31 C32,31.2708347 31.9010427,31.5052073 31.703125,31.703125 C31.5052073,31.9010427 31.2708347,32 31,32 C30.7187486,32 30.4843759,31.9010427 30.296875,31.703125 L27.6171875,29.03125 C26.6848912,29.6770866 25.6458391,30 24.5,30 C23.7552046,30 23.0429721,29.8554702 22.3632812,29.5664062 C21.6835904,29.2773423 21.0976587,28.8867212 20.6054688,28.3945312 C20.1132788,27.9023413 19.7226577,27.3164096 19.4335938,26.6367188 C19.1445298,25.9570279 19,25.2447954 19,24.5 C19,23.7552046 19.1445298,23.0429721 19.4335938,22.3632812 C19.7226577,21.6835904 20.1132788,21.0976587 20.6054688,20.6054688 C21.0976587,20.1132788 21.6835904,19.7226577 22.3632812,19.4335938 C23.0429721,19.1445298 23.7552046,19 24.5,19 C25.2447954,19 25.9570279,19.1445298 26.6367188,19.4335938 C27.3164096,19.7226577 27.9023413,20.1132788 28.3945312,20.6054688 C28.8867212,21.0976587 29.2773423,21.6835904 29.5664062,22.3632812 C29.8554702,23.0429721 30,23.7552046 30,24.5 C30,25.6458391 29.6770866,26.6848912 29.03125,27.6171875 L31.7109375,30.296875 C31.9036468,30.4895843 32,30.723957 32,31 L32,31 Z" id="search"/>
        </g>
    </g>
</svg>

